<svg width="278" height="105" viewBox="0 0 278 105" fill="none" xmlns="http://www.w3.org/2000/svg">
<path d="M30.2281 24.2656L26.3453 18.125H28.0328L31.0641 22.9844L34.0328 18.125H35.7203L31.8531 24.25V29H30.2281V24.2656ZM40.5369 29.125C37.589 29.125 36.115 27.6849 36.115 24.8047C36.115 23.5651 36.5239 22.5729 37.3416 21.8281C38.0759 21.151 38.9145 20.8125 39.8572 20.8125C40.8832 20.8125 41.6853 21.1562 42.2634 21.8438C42.7999 22.4844 43.0681 23.3411 43.0681 24.4141V25.0234H37.74C37.74 26.4974 38.3416 27.3984 39.5447 27.7266C39.8311 27.8047 40.2713 27.8438 40.865 27.8438C41.464 27.8438 42.0499 27.763 42.6228 27.6016V28.9219C42.0499 29.0573 41.3546 29.125 40.5369 29.125ZM41.5056 23.875C41.5056 23.375 41.3676 22.9531 41.0916 22.6094C40.7686 22.2135 40.3233 22.0156 39.7556 22.0156C39.1567 22.0156 38.6697 22.2057 38.2947 22.5859C37.9509 22.9401 37.7791 23.3698 37.7791 23.875H41.5056ZM46.6034 29.125C45.9524 29.125 45.2935 29.0781 44.6269 28.9844V27.6016C45.304 27.763 45.9915 27.8438 46.6894 27.8438C48.0852 27.8438 48.7831 27.5495 48.7831 26.9609C48.7831 26.737 48.7284 26.5703 48.6191 26.4609C48.4576 26.2891 48.2024 26.1172 47.8534 25.9453L46.7128 25.4219C45.9732 25.0521 45.4941 24.7552 45.2753 24.5312C44.8639 24.1146 44.6581 23.6198 44.6581 23.0469C44.6581 22.401 44.9576 21.875 45.5566 21.4688C46.2024 21.0312 47.1086 20.8125 48.2753 20.8125C48.8639 20.8125 49.4576 20.8542 50.0566 20.9375V22.2734C49.4003 22.1536 48.8274 22.0938 48.3378 22.0938C47.8534 22.0938 47.4758 22.125 47.205 22.1875C46.9394 22.25 46.7389 22.3281 46.6034 22.4219C46.3899 22.5677 46.2831 22.7578 46.2831 22.9922C46.2831 23.2214 46.356 23.4089 46.5019 23.5547C46.6529 23.6953 46.8873 23.849 47.205 24.0156L48.3534 24.5703C49.1034 24.9609 49.5852 25.2604 49.7988 25.4688C50.205 25.8646 50.4081 26.362 50.4081 26.9609C50.4081 27.6016 50.0852 28.1172 49.4394 28.5078C48.7623 28.9193 47.817 29.125 46.6034 29.125ZM52.6622 27.5469H54.17V29C54.17 30.0104 53.9747 30.7552 53.5841 31.2344C53.1466 31.7656 52.433 32.0312 51.4434 32.0312V30.7422C52.0997 30.7422 52.4851 30.4167 52.5997 29.7656C52.6414 29.5469 52.6622 29.2917 52.6622 29V27.5469ZM61.4828 18.125H63.0453V29H61.4828V18.125ZM68.2134 27.7656C68.3853 27.8281 68.6457 27.8594 68.9947 27.8594C69.3436 27.8594 69.6353 27.8177 69.8697 27.7344V28.9844C69.7603 29.0104 69.6015 29.026 69.3931 29.0312L68.9009 29.0469C68.7916 29.0469 68.7082 29.0469 68.6509 29.0469C67.6457 29.0469 66.9035 28.7188 66.4244 28.0625C66.039 27.5312 65.8463 26.8281 65.8463 25.9531V22.1328H64.69V21.3984L65.8463 20.9375L66.2213 18.9375H67.4088V20.9375H69.9088V22.1328H67.4088V25.9453C67.4088 26.9661 67.677 27.5729 68.2134 27.7656ZM73.8034 29.125C73.1524 29.125 72.4935 29.0781 71.8269 28.9844V27.6016C72.504 27.763 73.1915 27.8438 73.8894 27.8438C75.2852 27.8438 75.9831 27.5495 75.9831 26.9609C75.9831 26.737 75.9284 26.5703 75.8191 26.4609C75.6576 26.2891 75.4024 26.1172 75.0534 25.9453L73.9128 25.4219C73.1732 25.0521 72.6941 24.7552 72.4753 24.5312C72.0639 24.1146 71.8581 23.6198 71.8581 23.0469C71.8581 22.401 72.1576 21.875 72.7566 21.4688C73.4024 21.0312 74.3086 20.8125 75.4753 20.8125C76.0639 20.8125 76.6576 20.8542 77.2566 20.9375V22.2734C76.6003 22.1536 76.0274 22.0938 75.5378 22.0938C75.0534 22.0938 74.6758 22.125 74.405 22.1875C74.1394 22.25 73.9389 22.3281 73.8034 22.4219C73.5899 22.5677 73.4831 22.7578 73.4831 22.9922C73.4831 23.2214 73.556 23.4089 73.7019 23.5547C73.8529 23.6953 74.0873 23.849 74.405 24.0156L75.5534 24.5703C76.3034 24.9609 76.7852 25.2604 76.9988 25.4688C77.405 25.8646 77.6081 26.362 77.6081 26.9609C77.6081 27.6016 77.2852 28.1172 76.6394 28.5078C75.9623 28.9193 75.017 29.125 73.8034 29.125ZM86.0538 21.8203C86.5069 21.4714 87.0147 21.2161 87.5772 21.0547C88.1449 20.8932 88.6397 20.8125 89.0616 20.8125C89.4834 20.8125 89.809 20.8229 90.0381 20.8438V17.375H91.5928V29H90.1944L90.1319 28.0703C89.8142 28.4922 89.3324 28.8047 88.6866 29.0078C88.4366 29.0859 88.1814 29.125 87.9209 29.125C87.6657 29.125 87.4131 29.099 87.1631 29.0469C86.9131 28.9948 86.6631 28.9089 86.4131 28.7891C86.1683 28.6641 85.934 28.5026 85.71 28.3047C85.486 28.1016 85.2855 27.8542 85.1084 27.5625C84.7334 26.9219 84.5459 26.1641 84.5459 25.2891C84.5459 24.4141 84.684 23.7057 84.96 23.1641C85.2413 22.6172 85.6058 22.1693 86.0538 21.8203ZM86.9991 22.75C86.7334 23 86.5277 23.3229 86.3819 23.7188C86.2413 24.1094 86.1709 24.5859 86.1709 25.1484C86.1709 25.7057 86.2387 26.1667 86.3741 26.5312C86.5095 26.8906 86.6788 27.1719 86.8819 27.375C87.2413 27.7396 87.6735 27.9219 88.1788 27.9219C88.8298 27.9219 89.3689 27.6823 89.7959 27.2031C89.9053 27.0833 89.9834 26.9766 90.0303 26.8828V22.0781L89.8741 22.0625C89.6345 22.0312 89.348 22.0156 89.0147 22.0156C88.6866 22.0156 88.335 22.0755 87.96 22.1953C87.585 22.3099 87.2647 22.4948 86.9991 22.75ZM97.7688 29.125C94.8208 29.125 93.3469 27.6849 93.3469 24.8047C93.3469 23.5651 93.7557 22.5729 94.5734 21.8281C95.3078 21.151 96.1464 20.8125 97.0891 20.8125C98.1151 20.8125 98.9172 21.1562 99.4953 21.8438C100.032 22.4844 100.3 23.3411 100.3 24.4141V25.0234H94.9719C94.9719 26.4974 95.5734 27.3984 96.7766 27.7266C97.063 27.8047 97.5031 27.8438 98.0969 27.8438C98.6958 27.8438 99.2818 27.763 99.8547 27.6016V28.9219C99.2818 29.0573 98.5865 29.125 97.7688 29.125ZM98.7375 23.875C98.7375 23.375 98.5995 22.9531 98.3234 22.6094C98.0005 22.2135 97.5552 22.0156 96.9875 22.0156C96.3885 22.0156 95.9016 22.2057 95.5266 22.5859C95.1828 22.9401 95.0109 23.3698 95.0109 23.875H98.7375ZM103.835 29.125C103.184 29.125 102.525 29.0781 101.859 28.9844V27.6016C102.536 27.763 103.223 27.8438 103.921 27.8438C105.317 27.8438 106.015 27.5495 106.015 26.9609C106.015 26.737 105.96 26.5703 105.851 26.4609C105.689 26.2891 105.434 26.1172 105.085 25.9453L103.945 25.4219C103.205 25.0521 102.726 24.7552 102.507 24.5312C102.096 24.1146 101.89 23.6198 101.89 23.0469C101.89 22.401 102.189 21.875 102.788 21.4688C103.434 21.0312 104.341 20.8125 105.507 20.8125C106.096 20.8125 106.689 20.8542 107.288 20.9375V22.2734C106.632 22.1536 106.059 22.0938 105.57 22.0938C105.085 22.0938 104.708 22.125 104.437 22.1875C104.171 22.25 103.971 22.3281 103.835 22.4219C103.622 22.5677 103.515 22.7578 103.515 22.9922C103.515 23.2214 103.588 23.4089 103.734 23.5547C103.885 23.6953 104.119 23.849 104.437 24.0156L105.585 24.5703C106.335 24.9609 106.817 25.2604 107.031 25.4688C107.437 25.8646 107.64 26.362 107.64 26.9609C107.64 27.6016 107.317 28.1172 106.671 28.5078C105.994 28.9193 105.049 29.125 103.835 29.125ZM111.519 18.5938C111.519 18.8906 111.42 19.1198 111.222 19.2812C111.029 19.4375 110.787 19.5156 110.496 19.5156C110.204 19.5156 109.962 19.4375 109.769 19.2812C109.582 19.1198 109.488 18.8906 109.488 18.5938C109.488 18.2917 109.582 18.0625 109.769 17.9062C109.962 17.75 110.204 17.6719 110.496 17.6719C110.787 17.6719 111.029 17.75 111.222 17.9062C111.42 18.0625 111.519 18.2917 111.519 18.5938ZM109.691 20.9375H111.253V29H109.691V20.9375ZM118.14 32.0781C117.687 32.1927 117.104 32.25 116.39 32.25C115.682 32.25 115.164 32.1979 114.836 32.0938V30.7031C115.247 30.8802 115.75 30.9688 116.343 30.9688C116.942 30.974 117.382 30.9349 117.664 30.8516C117.945 30.7682 118.166 30.6328 118.328 30.4453C118.619 30.1068 118.765 29.4948 118.765 28.6094V28.1953C118.369 28.5911 117.849 28.8672 117.203 29.0234C116.942 29.0859 116.682 29.1172 116.422 29.1172C116.161 29.1172 115.906 29.0885 115.656 29.0312C115.411 28.974 115.166 28.8828 114.922 28.7578C114.677 28.6276 114.442 28.4609 114.218 28.2578C113.994 28.0495 113.797 27.7917 113.625 27.4844C113.239 26.8177 113.047 25.9974 113.047 25.0234C113.036 24.1224 113.297 23.3307 113.828 22.6484C114.286 22.0547 114.916 21.5938 115.718 21.2656C116.448 20.9635 117.237 20.8125 118.086 20.8125C118.935 20.8125 119.682 20.8542 120.328 20.9375V28.6094C120.328 30.5573 119.599 31.7135 118.14 32.0781ZM118.765 22.0781C118.432 22.0365 118.104 22.0156 117.781 22.0156C117.458 22.0156 117.096 22.0755 116.695 22.1953C116.294 22.3151 115.942 22.4974 115.64 22.7422C114.979 23.2786 114.648 24.0391 114.648 25.0234C114.648 26.0911 114.906 26.8698 115.422 27.3594C115.807 27.7292 116.278 27.9141 116.836 27.9141C117.507 27.9141 118.073 27.6771 118.531 27.2031C118.64 27.0833 118.718 26.9766 118.765 26.8828V22.0781ZM126.355 22.1562C125.579 22.1562 124.889 22.4193 124.285 22.9453V29H122.723V20.9375H124.168L124.277 21.8125C125.126 21.1458 126.004 20.8125 126.91 20.8125C127.868 20.8125 128.571 21.099 129.019 21.6719C129.488 22.276 129.723 23.25 129.723 24.5938V29H128.16V24.5938C128.16 23.3021 127.811 22.5312 127.113 22.2812C126.889 22.1979 126.637 22.1562 126.355 22.1562ZM135.672 29.125C132.724 29.125 131.25 27.6849 131.25 24.8047C131.25 23.5651 131.659 22.5729 132.477 21.8281C133.211 21.151 134.049 20.8125 134.992 20.8125C136.018 20.8125 136.82 21.1562 137.398 21.8438C137.935 22.4844 138.203 23.3411 138.203 24.4141V25.0234H132.875C132.875 26.4974 133.477 27.3984 134.68 27.7266C134.966 27.8047 135.406 27.8438 136 27.8438C136.599 27.8438 137.185 27.763 137.758 27.6016V28.9219C137.185 29.0573 136.49 29.125 135.672 29.125ZM136.641 23.875C136.641 23.375 136.503 22.9531 136.227 22.6094C135.904 22.2135 135.458 22.0156 134.891 22.0156C134.292 22.0156 133.805 22.2057 133.43 22.5859C133.086 22.9401 132.914 23.3698 132.914 23.875H136.641ZM140.981 21.8203C141.434 21.4714 141.942 21.2161 142.504 21.0547C143.072 20.8932 143.567 20.8125 143.988 20.8125C144.41 20.8125 144.736 20.8229 144.965 20.8438V17.375H146.52V29H145.121L145.059 28.0703C144.741 28.4922 144.259 28.8047 143.613 29.0078C143.363 29.0859 143.108 29.125 142.848 29.125C142.593 29.125 142.34 29.099 142.09 29.0469C141.84 28.9948 141.59 28.9089 141.34 28.7891C141.095 28.6641 140.861 28.5026 140.637 28.3047C140.413 28.1016 140.212 27.8542 140.035 27.5625C139.66 26.9219 139.473 26.1641 139.473 25.2891C139.473 24.4141 139.611 23.7057 139.887 23.1641C140.168 22.6172 140.533 22.1693 140.981 21.8203ZM141.926 22.75C141.66 23 141.455 23.3229 141.309 23.7188C141.168 24.1094 141.098 24.5859 141.098 25.1484C141.098 25.7057 141.166 26.1667 141.301 26.5312C141.436 26.8906 141.606 27.1719 141.809 27.375C142.168 27.7396 142.6 27.9219 143.106 27.9219C143.757 27.9219 144.296 27.6823 144.723 27.2031C144.832 27.0833 144.91 26.9766 144.957 26.8828V22.0781L144.801 22.0625C144.561 22.0312 144.275 22.0156 143.942 22.0156C143.613 22.0156 143.262 22.0755 142.887 22.1953C142.512 22.3099 142.192 22.4948 141.926 22.75ZM158.192 18.5469C158.004 18.4844 157.744 18.4531 157.411 18.4531C157.077 18.4531 156.812 18.4844 156.614 18.5469C156.421 18.6094 156.267 18.7005 156.153 18.8203C155.955 19.0339 155.856 19.3828 155.856 19.8672V20.9375H157.872V22.1328H155.856V29H154.293V22.1328H153.325V21.3984L154.293 20.9375V20.0781C154.293 19.5312 154.34 19.1198 154.434 18.8438C154.533 18.5677 154.65 18.3385 154.786 18.1562C154.921 17.974 155.103 17.8151 155.333 17.6797C155.817 17.3932 156.497 17.25 157.372 17.25C157.736 17.25 158.01 17.2708 158.192 17.3125V18.5469ZM158.758 24.9531C158.758 23.6875 159.162 22.6615 159.969 21.875C160.725 21.1406 161.659 20.7734 162.774 20.7734C163.868 20.7734 164.782 21.1406 165.516 21.875C166.298 22.6562 166.688 23.6823 166.688 24.9531C166.688 26.2188 166.295 27.2396 165.508 28.0156C164.764 28.7552 163.85 29.125 162.766 29.125C161.667 29.125 160.735 28.7552 159.969 28.0156C159.162 27.2396 158.758 26.2188 158.758 24.9531ZM160.383 24.9531C160.383 26.2865 160.811 27.1927 161.665 27.6719C161.967 27.8385 162.329 27.9219 162.751 27.9219C163.173 27.9219 163.529 27.8385 163.821 27.6719C164.113 27.5 164.352 27.276 164.54 27C164.889 26.4688 165.063 25.7865 165.063 24.9531C165.063 23.6302 164.644 22.724 163.805 22.2344C163.514 22.0625 163.165 21.9766 162.758 21.9766C162.352 21.9766 161.998 22.0625 161.696 22.2344C161.399 22.401 161.154 22.6224 160.962 22.8984C160.576 23.4401 160.383 24.125 160.383 24.9531ZM173.575 22.3672C173.289 22.2839 172.945 22.2422 172.544 22.2422C172.148 22.2422 171.822 22.2839 171.567 22.3672C171.312 22.4453 171.088 22.5417 170.895 22.6562C170.541 22.8646 170.283 23.099 170.122 23.3594V29H168.559V20.9375H170.059L170.122 22.0547C170.513 21.5651 171.083 21.1979 171.833 20.9531C172.104 20.8594 172.414 20.8125 172.763 20.8125C173.111 20.8125 173.382 20.8385 173.575 20.8906V22.3672ZM182.786 19.5H179.513V18.125H187.622V19.5H184.349V29H182.786V19.5ZM193.079 29.125C190.131 29.125 188.658 27.6849 188.658 24.8047C188.658 23.5651 189.066 22.5729 189.884 21.8281C190.618 21.151 191.457 20.8125 192.4 20.8125C193.426 20.8125 194.228 21.1562 194.806 21.8438C195.342 22.4844 195.611 23.3411 195.611 24.4141V25.0234H190.283C190.283 26.4974 190.884 27.3984 192.087 27.7266C192.374 27.8047 192.814 27.8438 193.408 27.8438C194.006 27.8438 194.592 27.763 195.165 27.6016V28.9219C194.592 29.0573 193.897 29.125 193.079 29.125ZM194.048 23.875C194.048 23.375 193.91 22.9531 193.634 22.6094C193.311 22.2135 192.866 22.0156 192.298 22.0156C191.699 22.0156 191.212 22.2057 190.837 22.5859C190.493 22.9401 190.322 23.3698 190.322 23.875H194.048ZM197.529 27.5625C197.357 27.2656 197.219 26.9167 197.115 26.5156C197.016 26.1146 196.966 25.5911 196.966 24.9453C196.966 24.2995 197.104 23.7057 197.38 23.1641C197.662 22.6172 198.026 22.1693 198.474 21.8203C199.344 21.1484 200.425 20.8125 201.716 20.8125C202.388 20.8125 202.896 20.8281 203.24 20.8594C203.24 20.8594 203.492 20.8854 203.997 20.9375V29H202.591L202.529 28.0703C202.216 28.487 201.74 28.7969 201.099 29C200.854 29.0781 200.602 29.1172 200.341 29.1172C200.086 29.1172 199.833 29.0911 199.583 29.0391C199.333 28.987 199.083 28.901 198.833 28.7812C198.589 28.6615 198.354 28.5026 198.13 28.3047C197.906 28.1016 197.706 27.8542 197.529 27.5625ZM202.435 22.0859C202.102 22.0443 201.768 22.0234 201.435 22.0234C201.107 22.0234 200.755 22.0833 200.38 22.2031C200.005 22.3177 199.685 22.5 199.419 22.75C198.867 23.2708 198.591 24.0651 198.591 25.1328C198.591 26.1432 198.828 26.8906 199.302 27.375C199.662 27.7344 200.094 27.9141 200.599 27.9141C201.25 27.9141 201.787 27.6771 202.208 27.2031C202.313 27.0833 202.388 26.9766 202.435 26.8828V22.0859ZM207.931 22.9453L207.939 29H206.377V20.9375H207.814L207.923 21.8203C208.496 21.3411 209.163 21.0286 209.923 20.8828C210.168 20.8359 210.408 20.8125 210.642 20.8125C211.616 20.8125 212.351 21.224 212.845 22.0469C213.752 21.224 214.699 20.8125 215.689 20.8125C216.668 20.8125 217.382 21.1068 217.83 21.6953C218.278 22.2943 218.502 23.2839 218.502 24.6641V29H216.939V24.7188C216.939 23.3646 216.614 22.5547 215.962 22.2891C215.744 22.2005 215.489 22.1562 215.197 22.1562C214.499 22.1562 213.858 22.4062 213.275 22.9062V29H211.712V24.6562C211.712 23.7292 211.574 23.0781 211.298 22.7031C211.033 22.3385 210.556 22.1562 209.869 22.1562C209.186 22.1562 208.541 22.4193 207.931 22.9453ZM222.826 29.125C222.175 29.125 221.516 29.0781 220.849 28.9844V27.6016C221.526 27.763 222.214 27.8438 222.912 27.8438C224.308 27.8438 225.006 27.5495 225.006 26.9609C225.006 26.737 224.951 26.5703 224.842 26.4609C224.68 26.2891 224.425 26.1172 224.076 25.9453L222.935 25.4219C222.196 25.0521 221.717 24.7552 221.498 24.5312C221.086 24.1146 220.881 23.6198 220.881 23.0469C220.881 22.401 221.18 21.875 221.779 21.4688C222.425 21.0312 223.331 20.8125 224.498 20.8125C225.086 20.8125 225.68 20.8542 226.279 20.9375V22.2734C225.623 22.1536 225.05 22.0938 224.56 22.0938C224.076 22.0938 223.698 22.125 223.427 22.1875C223.162 22.25 222.961 22.3281 222.826 22.4219C222.612 22.5677 222.506 22.7578 222.506 22.9922C222.506 23.2214 222.579 23.4089 222.724 23.5547C222.875 23.6953 223.11 23.849 223.427 24.0156L224.576 24.5703C225.326 24.9609 225.808 25.2604 226.021 25.4688C226.427 25.8646 226.631 26.362 226.631 26.9609C226.631 27.6016 226.308 28.1172 225.662 28.5078C224.985 28.9193 224.039 29.125 222.826 29.125ZM234.217 27.5625C234.045 27.2656 233.907 26.9167 233.803 26.5156C233.704 26.1146 233.654 25.5911 233.654 24.9453C233.654 24.2995 233.792 23.7057 234.068 23.1641C234.35 22.6172 234.714 22.1693 235.162 21.8203C236.032 21.1484 237.113 20.8125 238.404 20.8125C239.076 20.8125 239.584 20.8281 239.928 20.8594C239.928 20.8594 240.18 20.8854 240.686 20.9375V29H239.279L239.217 28.0703C238.904 28.487 238.428 28.7969 237.787 29C237.542 29.0781 237.29 29.1172 237.029 29.1172C236.774 29.1172 236.522 29.0911 236.272 29.0391C236.022 28.987 235.772 28.901 235.522 28.7812C235.277 28.6615 235.042 28.5026 234.818 28.3047C234.594 28.1016 234.394 27.8542 234.217 27.5625ZM239.123 22.0859C238.79 22.0443 238.456 22.0234 238.123 22.0234C237.795 22.0234 237.443 22.0833 237.068 22.2031C236.693 22.3177 236.373 22.5 236.108 22.75C235.555 23.2708 235.279 24.0651 235.279 25.1328C235.279 26.1432 235.516 26.8906 235.99 27.375C236.35 27.7344 236.782 27.9141 237.287 27.9141C237.938 27.9141 238.475 27.6771 238.897 27.2031C239.001 27.0833 239.076 26.9766 239.123 26.8828V22.0859ZM245.002 29.125C244.351 29.125 243.692 29.0781 243.026 28.9844V27.6016C243.703 27.763 244.39 27.8438 245.088 27.8438C246.484 27.8438 247.182 27.5495 247.182 26.9609C247.182 26.737 247.127 26.5703 247.018 26.4609C246.856 26.2891 246.601 26.1172 246.252 25.9453L245.112 25.4219C244.372 25.0521 243.893 24.7552 243.674 24.5312C243.263 24.1146 243.057 23.6198 243.057 23.0469C243.057 22.401 243.356 21.875 243.955 21.4688C244.601 21.0312 245.507 20.8125 246.674 20.8125C247.263 20.8125 247.856 20.8542 248.455 20.9375V22.2734C247.799 22.1536 247.226 22.0938 246.737 22.0938C246.252 22.0938 245.875 22.125 245.604 22.1875C245.338 22.25 245.138 22.3281 245.002 22.4219C244.789 22.5677 244.682 22.7578 244.682 22.9922C244.682 23.2214 244.755 23.4089 244.901 23.5547C245.052 23.6953 245.286 23.849 245.604 24.0156L246.752 24.5703C247.502 24.9609 247.984 25.2604 248.198 25.4688C248.604 25.8646 248.807 26.362 248.807 26.9609C248.807 27.6016 248.484 28.1172 247.838 28.5078C247.161 28.9193 246.216 29.125 245.002 29.125ZM53.2619 40.9375H54.9259L56.9962 47.3438L59.09 40.9375H60.715L62.8322 47.3203L64.8009 40.9375H66.3478L63.6369 49H62.0275L59.8556 42.8906L57.8009 49H56.1916L53.2619 40.9375ZM71.2972 49.125C68.3493 49.125 66.8753 47.6849 66.8753 44.8047C66.8753 43.5651 67.2842 42.5729 68.1019 41.8281C68.8362 41.151 69.6748 40.8125 70.6175 40.8125C71.6435 40.8125 72.4456 41.1562 73.0237 41.8438C73.5602 42.4844 73.8284 43.3411 73.8284 44.4141V45.0234H68.5003C68.5003 46.4974 69.1019 47.3984 70.305 47.7266C70.5915 47.8047 71.0316 47.8438 71.6253 47.8438C72.2243 47.8438 72.8102 47.763 73.3831 47.6016V48.9219C72.8102 49.0573 72.1149 49.125 71.2972 49.125ZM72.2659 43.875C72.2659 43.375 72.1279 42.9531 71.8519 42.6094C71.529 42.2135 71.0836 42.0156 70.5159 42.0156C69.917 42.0156 69.43 42.2057 69.055 42.5859C68.7112 42.9401 68.5394 43.3698 68.5394 43.875H72.2659ZM75.7231 37.375H77.2856V45.9453C77.2856 46.9766 77.52 47.5833 77.9887 47.7656C78.145 47.8281 78.3117 47.8594 78.4887 47.8594C78.6658 47.8594 78.8247 47.8385 78.9653 47.7969V49L78.6762 49.0312C78.5825 49.0417 78.4914 49.0469 78.4028 49.0469C77.4028 49.0469 76.6815 48.7188 76.2387 48.0625C75.895 47.5469 75.7231 46.8438 75.7231 45.9531V37.375ZM80.9069 37.375H82.4694V45.9453C82.4694 46.9766 82.7037 47.5833 83.1725 47.7656C83.3287 47.8281 83.4954 47.8594 83.6725 47.8594C83.8496 47.8594 84.0084 47.8385 84.1491 47.7969V49L83.86 49.0312C83.7662 49.0417 83.6751 49.0469 83.5866 49.0469C82.5866 49.0469 81.8652 48.7188 81.4225 48.0625C81.0787 47.5469 80.9069 46.8438 80.9069 45.9531V37.375ZM91.2822 47.5625C91.1103 47.2656 90.9723 46.9167 90.8681 46.5156C90.7692 46.1146 90.7197 45.5911 90.7197 44.9453C90.7197 44.2995 90.8577 43.7057 91.1337 43.1641C91.415 42.6172 91.7796 42.1693 92.2275 41.8203C93.0973 41.1484 94.178 40.8125 95.4697 40.8125C96.1416 40.8125 96.6494 40.8281 96.9931 40.8594C96.9931 40.8594 97.2457 40.8854 97.7509 40.9375V49H96.3447L96.2822 48.0703C95.9697 48.487 95.4931 48.7969 94.8525 49C94.6077 49.0781 94.3551 49.1172 94.0947 49.1172C93.8395 49.1172 93.5869 49.0911 93.3369 49.0391C93.0869 48.987 92.8369 48.901 92.5869 48.7812C92.3421 48.6615 92.1077 48.5026 91.8837 48.3047C91.6598 48.1016 91.4593 47.8542 91.2822 47.5625ZM96.1884 42.0859C95.8551 42.0443 95.5218 42.0234 95.1884 42.0234C94.8603 42.0234 94.5087 42.0833 94.1337 42.2031C93.7587 42.3177 93.4384 42.5 93.1728 42.75C92.6207 43.2708 92.3447 44.0651 92.3447 45.1328C92.3447 46.1432 92.5817 46.8906 93.0556 47.375C93.415 47.7344 93.8473 47.9141 94.3525 47.9141C95.0035 47.9141 95.54 47.6771 95.9619 47.2031C96.066 47.0833 96.1416 46.9766 96.1884 46.8828V42.0859ZM102.067 49.125C101.416 49.125 100.758 49.0781 100.091 48.9844V47.6016C100.768 47.763 101.456 47.8438 102.153 47.8438C103.549 47.8438 104.247 47.5495 104.247 46.9609C104.247 46.737 104.192 46.5703 104.083 46.4609C103.922 46.2891 103.666 46.1172 103.317 45.9453L102.177 45.4219C101.437 45.0521 100.958 44.7552 100.739 44.5312C100.328 44.1146 100.122 43.6198 100.122 43.0469C100.122 42.401 100.422 41.875 101.021 41.4688C101.666 41.0312 102.573 40.8125 103.739 40.8125C104.328 40.8125 104.922 40.8542 105.521 40.9375V42.2734C104.864 42.1536 104.291 42.0938 103.802 42.0938C103.317 42.0938 102.94 42.125 102.669 42.1875C102.403 42.25 102.203 42.3281 102.067 42.4219C101.854 42.5677 101.747 42.7578 101.747 42.9922C101.747 43.2214 101.82 43.4089 101.966 43.5547C102.117 43.6953 102.351 43.849 102.669 44.0156L103.817 44.5703C104.567 44.9609 105.049 45.2604 105.263 45.4688C105.669 45.8646 105.872 46.362 105.872 46.9609C105.872 47.6016 105.549 48.1172 104.903 48.5078C104.226 48.9193 103.281 49.125 102.067 49.125ZM114.919 38.5938C114.919 38.8906 114.82 39.1198 114.622 39.2812C114.43 39.4375 114.188 39.5156 113.896 39.5156C113.604 39.5156 113.362 39.4375 113.169 39.2812C112.982 39.1198 112.888 38.8906 112.888 38.5938C112.888 38.2917 112.982 38.0625 113.169 37.9062C113.362 37.75 113.604 37.6719 113.896 37.6719C114.188 37.6719 114.43 37.75 114.622 37.9062C114.82 38.0625 114.919 38.2917 114.919 38.5938ZM113.091 40.9375H114.654V49H113.091V40.9375ZM120.587 42.1562C119.811 42.1562 119.121 42.4193 118.517 42.9453V49H116.955V40.9375H118.4L118.509 41.8125C119.358 41.1458 120.236 40.8125 121.142 40.8125C122.101 40.8125 122.804 41.099 123.252 41.6719C123.72 42.276 123.955 43.25 123.955 44.5938V49H122.392V44.5938C122.392 43.3021 122.043 42.5312 121.345 42.2812C121.121 42.1979 120.869 42.1562 120.587 42.1562ZM127.357 41.8203C127.81 41.4714 128.318 41.2161 128.881 41.0547C129.448 40.8932 129.943 40.8125 130.365 40.8125C130.787 40.8125 131.112 40.8229 131.342 40.8438V37.375H132.896V49H131.498L131.435 48.0703C131.118 48.4922 130.636 48.8047 129.99 49.0078C129.74 49.0859 129.485 49.125 129.224 49.125C128.969 49.125 128.717 49.099 128.467 49.0469C128.217 48.9948 127.967 48.9089 127.717 48.7891C127.472 48.6641 127.237 48.5026 127.013 48.3047C126.789 48.1016 126.589 47.8542 126.412 47.5625C126.037 46.9219 125.849 46.1641 125.849 45.2891C125.849 44.4141 125.987 43.7057 126.263 43.1641C126.545 42.6172 126.909 42.1693 127.357 41.8203ZM128.302 42.75C128.037 43 127.831 43.3229 127.685 43.7188C127.545 44.1094 127.474 44.5859 127.474 45.1484C127.474 45.7057 127.542 46.1667 127.677 46.5312C127.813 46.8906 127.982 47.1719 128.185 47.375C128.545 47.7396 128.977 47.9219 129.482 47.9219C130.133 47.9219 130.672 47.6823 131.099 47.2031C131.209 47.0833 131.287 46.9766 131.334 46.8828V42.0781L131.177 42.0625C130.938 42.0312 130.651 42.0156 130.318 42.0156C129.99 42.0156 129.638 42.0755 129.263 42.1953C128.888 42.3099 128.568 42.4948 128.302 42.75ZM137.127 38.5938C137.127 38.8906 137.028 39.1198 136.83 39.2812C136.637 39.4375 136.395 39.5156 136.103 39.5156C135.812 39.5156 135.57 39.4375 135.377 39.2812C135.189 39.1198 135.096 38.8906 135.096 38.5938C135.096 38.2917 135.189 38.0625 135.377 37.9062C135.57 37.75 135.812 37.6719 136.103 37.6719C136.395 37.6719 136.637 37.75 136.83 37.9062C137.028 38.0625 137.127 38.2917 137.127 38.5938ZM135.299 40.9375H136.861V49H135.299V40.9375ZM138.061 40.9375H139.74L141.936 47.4766L144.139 40.9375H145.811L142.725 49H141.154L138.061 40.9375ZM148.807 38.5938C148.807 38.8906 148.708 39.1198 148.51 39.2812C148.317 39.4375 148.075 39.5156 147.783 39.5156C147.492 39.5156 147.25 39.4375 147.057 39.2812C146.869 39.1198 146.776 38.8906 146.776 38.5938C146.776 38.2917 146.869 38.0625 147.057 37.9062C147.25 37.75 147.492 37.6719 147.783 37.6719C148.075 37.6719 148.317 37.75 148.51 37.9062C148.708 38.0625 148.807 38.2917 148.807 38.5938ZM146.979 40.9375H148.541V49H146.979V40.9375ZM152.061 41.8203C152.514 41.4714 153.022 41.2161 153.584 41.0547C154.152 40.8932 154.647 40.8125 155.069 40.8125C155.491 40.8125 155.816 40.8229 156.045 40.8438V37.375H157.6V49H156.202L156.139 48.0703C155.821 48.4922 155.34 48.8047 154.694 49.0078C154.444 49.0859 154.189 49.125 153.928 49.125C153.673 49.125 153.42 49.099 153.17 49.0469C152.92 48.9948 152.67 48.9089 152.42 48.7891C152.176 48.6641 151.941 48.5026 151.717 48.3047C151.493 48.1016 151.293 47.8542 151.116 47.5625C150.741 46.9219 150.553 46.1641 150.553 45.2891C150.553 44.4141 150.691 43.7057 150.967 43.1641C151.248 42.6172 151.613 42.1693 152.061 41.8203ZM153.006 42.75C152.741 43 152.535 43.3229 152.389 43.7188C152.248 44.1094 152.178 44.5859 152.178 45.1484C152.178 45.7057 152.246 46.1667 152.381 46.5312C152.517 46.8906 152.686 47.1719 152.889 47.375C153.248 47.7396 153.681 47.9219 154.186 47.9219C154.837 47.9219 155.376 47.6823 155.803 47.2031C155.913 47.0833 155.991 46.9766 156.038 46.8828V42.0781L155.881 42.0625C155.642 42.0312 155.355 42.0156 155.022 42.0156C154.694 42.0156 154.342 42.0755 153.967 42.1953C153.592 42.3099 153.272 42.4948 153.006 42.75ZM165.268 47.0234V40.9375H166.831V49H165.424L165.284 48.1484C164.513 48.7995 163.661 49.125 162.729 49.125C161.739 49.125 161.039 48.8516 160.628 48.3047C160.2 47.7474 159.987 46.7865 159.987 45.4219V40.9375H161.549V45.3438C161.549 46.3073 161.687 46.9635 161.963 47.3125C162.208 47.625 162.674 47.7812 163.362 47.7812C164.055 47.7812 164.69 47.5286 165.268 47.0234ZM169.553 47.5625C169.382 47.2656 169.244 46.9167 169.139 46.5156C169.04 46.1146 168.991 45.5911 168.991 44.9453C168.991 44.2995 169.129 43.7057 169.405 43.1641C169.686 42.6172 170.051 42.1693 170.499 41.8203C171.369 41.1484 172.449 40.8125 173.741 40.8125C174.413 40.8125 174.921 40.8281 175.264 40.8594C175.264 40.8594 175.517 40.8854 176.022 40.9375V49H174.616L174.553 48.0703C174.241 48.487 173.764 48.7969 173.124 49C172.879 49.0781 172.626 49.1172 172.366 49.1172C172.111 49.1172 171.858 49.0911 171.608 49.0391C171.358 48.987 171.108 48.901 170.858 48.7812C170.613 48.6615 170.379 48.5026 170.155 48.3047C169.931 48.1016 169.731 47.8542 169.553 47.5625ZM174.46 42.0859C174.126 42.0443 173.793 42.0234 173.46 42.0234C173.132 42.0234 172.78 42.0833 172.405 42.2031C172.03 42.3177 171.71 42.5 171.444 42.75C170.892 43.2708 170.616 44.0651 170.616 45.1328C170.616 46.1432 170.853 46.8906 171.327 47.375C171.686 47.7344 172.119 47.9141 172.624 47.9141C173.275 47.9141 173.811 47.6771 174.233 47.2031C174.337 47.0833 174.413 46.9766 174.46 46.8828V42.0859ZM178.698 37.375H180.261V45.9453C180.261 46.9766 180.495 47.5833 180.964 47.7656C181.12 47.8281 181.287 47.8594 181.464 47.8594C181.641 47.8594 181.8 47.8385 181.94 47.7969V49L181.651 49.0312C181.557 49.0417 181.466 49.0469 181.378 49.0469C180.378 49.0469 179.656 48.7188 179.214 48.0625C178.87 47.5469 178.698 46.8438 178.698 45.9531V37.375ZM185.522 49.125C184.871 49.125 184.213 49.0781 183.546 48.9844V47.6016C184.223 47.763 184.911 47.8438 185.608 47.8438C187.004 47.8438 187.702 47.5495 187.702 46.9609C187.702 46.737 187.647 46.5703 187.538 46.4609C187.377 46.2891 187.121 46.1172 186.772 45.9453L185.632 45.4219C184.892 45.0521 184.413 44.7552 184.194 44.5312C183.783 44.1146 183.577 43.6198 183.577 43.0469C183.577 42.401 183.877 41.875 184.476 41.4688C185.121 41.0312 186.028 40.8125 187.194 40.8125C187.783 40.8125 188.377 40.8542 188.976 40.9375V42.2734C188.319 42.1536 187.746 42.0938 187.257 42.0938C186.772 42.0938 186.395 42.125 186.124 42.1875C185.858 42.25 185.658 42.3281 185.522 42.4219C185.309 42.5677 185.202 42.7578 185.202 42.9922C185.202 43.2214 185.275 43.4089 185.421 43.5547C185.572 43.6953 185.806 43.849 186.124 44.0156L187.272 44.5703C188.022 44.9609 188.504 45.2604 188.718 45.4688C189.124 45.8646 189.327 46.362 189.327 46.9609C189.327 47.6016 189.004 48.1172 188.358 48.5078C187.681 48.9193 186.736 49.125 185.522 49.125ZM196.913 47.5625C196.742 47.2656 196.604 46.9167 196.499 46.5156C196.4 46.1146 196.351 45.5911 196.351 44.9453C196.351 44.2995 196.489 43.7057 196.765 43.1641C197.046 42.6172 197.411 42.1693 197.859 41.8203C198.729 41.1484 199.809 40.8125 201.101 40.8125C201.773 40.8125 202.281 40.8281 202.624 40.8594C202.624 40.8594 202.877 40.8854 203.382 40.9375V49H201.976L201.913 48.0703C201.601 48.487 201.124 48.7969 200.484 49C200.239 49.0781 199.986 49.1172 199.726 49.1172C199.471 49.1172 199.218 49.0911 198.968 49.0391C198.718 48.987 198.468 48.901 198.218 48.7812C197.973 48.6615 197.739 48.5026 197.515 48.3047C197.291 48.1016 197.091 47.8542 196.913 47.5625ZM201.82 42.0859C201.486 42.0443 201.153 42.0234 200.82 42.0234C200.492 42.0234 200.14 42.0833 199.765 42.2031C199.39 42.3177 199.07 42.5 198.804 42.75C198.252 43.2708 197.976 44.0651 197.976 45.1328C197.976 46.1432 198.213 46.8906 198.687 47.375C199.046 47.7344 199.479 47.9141 199.984 47.9141C200.635 47.9141 201.171 47.6771 201.593 47.2031C201.697 47.0833 201.773 46.9766 201.82 46.8828V42.0859ZM209.355 42.1562C208.579 42.1562 207.889 42.4193 207.285 42.9453V49H205.722V40.9375H207.167L207.277 41.8125C208.126 41.1458 209.003 40.8125 209.91 40.8125C210.868 40.8125 211.571 41.099 212.019 41.6719C212.488 42.276 212.722 43.25 212.722 44.5938V49H211.16V44.5938C211.16 43.3021 210.811 42.5312 210.113 42.2812C209.889 42.1979 209.636 42.1562 209.355 42.1562ZM216.125 41.8203C216.578 41.4714 217.086 41.2161 217.648 41.0547C218.216 40.8932 218.711 40.8125 219.132 40.8125C219.554 40.8125 219.88 40.8229 220.109 40.8438V37.375H221.664V49H220.265L220.203 48.0703C219.885 48.4922 219.403 48.8047 218.757 49.0078C218.507 49.0859 218.252 49.125 217.992 49.125C217.737 49.125 217.484 49.099 217.234 49.0469C216.984 48.9948 216.734 48.9089 216.484 48.7891C216.239 48.6641 216.005 48.5026 215.781 48.3047C215.557 48.1016 215.356 47.8542 215.179 47.5625C214.804 46.9219 214.617 46.1641 214.617 45.2891C214.617 44.4141 214.755 43.7057 215.031 43.1641C215.312 42.6172 215.677 42.1693 216.125 41.8203ZM217.07 42.75C216.804 43 216.599 43.3229 216.453 43.7188C216.312 44.1094 216.242 44.5859 216.242 45.1484C216.242 45.7057 216.31 46.1667 216.445 46.5312C216.58 46.8906 216.75 47.1719 216.953 47.375C217.312 47.7396 217.744 47.9219 218.25 47.9219C218.901 47.9219 219.44 47.6823 219.867 47.2031C219.976 47.0833 220.054 46.9766 220.101 46.8828V42.0781L219.945 42.0625C219.705 42.0312 219.419 42.0156 219.086 42.0156C218.757 42.0156 218.406 42.0755 218.031 42.1953C217.656 42.3099 217.336 42.4948 217.07 42.75ZM44.9766 58.5938C44.9766 58.8906 44.8776 59.1198 44.6797 59.2812C44.487 59.4375 44.2448 59.5156 43.9531 59.5156C43.6615 59.5156 43.4193 59.4375 43.2266 59.2812C43.0391 59.1198 42.9453 58.8906 42.9453 58.5938C42.9453 58.2917 43.0391 58.0625 43.2266 57.9062C43.4193 57.75 43.6615 57.6719 43.9531 57.6719C44.2448 57.6719 44.487 57.75 44.6797 57.9062C44.8776 58.0625 44.9766 58.2917 44.9766 58.5938ZM43.1484 60.9375H44.7109V69H43.1484V60.9375ZM50.6447 62.1562C49.8686 62.1562 49.1785 62.4193 48.5744 62.9453V69H47.0119V60.9375H48.4572L48.5666 61.8125C49.4155 61.1458 50.2931 60.8125 51.1994 60.8125C52.1577 60.8125 52.8608 61.099 53.3088 61.6719C53.7775 62.276 54.0119 63.25 54.0119 64.5938V69H52.4494V64.5938C52.4494 63.3021 52.1004 62.5312 51.4025 62.2812C51.1785 62.1979 50.9259 62.1562 50.6447 62.1562ZM59.0941 67.7656C59.2659 67.8281 59.5264 67.8594 59.8753 67.8594C60.2243 67.8594 60.5159 67.8177 60.7503 67.7344V68.9844C60.6409 69.0104 60.4821 69.026 60.2738 69.0312L59.7816 69.0469C59.6722 69.0469 59.5889 69.0469 59.5316 69.0469C58.5264 69.0469 57.7842 68.7188 57.305 68.0625C56.9196 67.5312 56.7269 66.8281 56.7269 65.9531V62.1328H55.5706V61.3984L56.7269 60.9375L57.1019 58.9375H58.2894V60.9375H60.7894V62.1328H58.2894V65.9453C58.2894 66.9661 58.5576 67.5729 59.0941 67.7656ZM66.4731 69.125C63.5252 69.125 62.0513 67.6849 62.0513 64.8047C62.0513 63.5651 62.4601 62.5729 63.2778 61.8281C64.0122 61.151 64.8507 60.8125 65.7934 60.8125C66.8195 60.8125 67.6216 61.1562 68.1997 61.8438C68.7361 62.4844 69.0044 63.3411 69.0044 64.4141V65.0234H63.6763C63.6763 66.4974 64.2778 67.3984 65.4809 67.7266C65.7674 67.8047 66.2075 67.8438 66.8013 67.8438C67.4002 67.8438 67.9861 67.763 68.5591 67.6016V68.9219C67.9861 69.0573 67.2908 69.125 66.4731 69.125ZM67.4419 63.875C67.4419 63.375 67.3039 62.9531 67.0278 62.6094C66.7049 62.2135 66.2596 62.0156 65.6919 62.0156C65.0929 62.0156 64.6059 62.2057 64.2309 62.5859C63.8872 62.9401 63.7153 63.3698 63.7153 63.875H67.4419ZM75.1491 72.0781C74.6959 72.1927 74.1126 72.25 73.3991 72.25C72.6907 72.25 72.1725 72.1979 71.8444 72.0938V70.7031C72.2558 70.8802 72.7584 70.9688 73.3522 70.9688C73.9511 70.974 74.3913 70.9349 74.6725 70.8516C74.9538 70.7682 75.1751 70.6328 75.3366 70.4453C75.6282 70.1068 75.7741 69.4948 75.7741 68.6094V68.1953C75.3782 68.5911 74.8574 68.8672 74.2116 69.0234C73.9511 69.0859 73.6907 69.1172 73.4303 69.1172C73.1699 69.1172 72.9147 69.0885 72.6647 69.0312C72.4199 68.974 72.1751 68.8828 71.9303 68.7578C71.6855 68.6276 71.4511 68.4609 71.2272 68.2578C71.0032 68.0495 70.8053 67.7917 70.6334 67.4844C70.248 66.8177 70.0553 65.9974 70.0553 65.0234C70.0449 64.1224 70.3053 63.3307 70.8366 62.6484C71.2949 62.0547 71.9251 61.5938 72.7272 61.2656C73.4564 60.9635 74.2454 60.8125 75.0944 60.8125C75.9433 60.8125 76.6907 60.8542 77.3366 60.9375V68.6094C77.3366 70.5573 76.6074 71.7135 75.1491 72.0781ZM75.7741 62.0781C75.4407 62.0365 75.1126 62.0156 74.7897 62.0156C74.4668 62.0156 74.1048 62.0755 73.7038 62.1953C73.3027 62.3151 72.9511 62.4974 72.6491 62.7422C71.9876 63.2786 71.6569 64.0391 71.6569 65.0234C71.6569 66.0911 71.9147 66.8698 72.4303 67.3594C72.8157 67.7292 73.2871 67.9141 73.8444 67.9141C74.5163 67.9141 75.0814 67.6771 75.5397 67.2031C75.6491 67.0833 75.7272 66.9766 75.7741 66.8828V62.0781ZM84.8563 62.3672C84.5698 62.2839 84.226 62.2422 83.825 62.2422C83.4292 62.2422 83.1036 62.2839 82.8484 62.3672C82.5932 62.4453 82.3693 62.5417 82.1766 62.6562C81.8224 62.8646 81.5646 63.099 81.4031 63.3594V69H79.8406V60.9375H81.3406L81.4031 62.0547C81.7938 61.5651 82.3641 61.1979 83.1141 60.9531C83.3849 60.8594 83.6948 60.8125 84.0438 60.8125C84.3927 60.8125 84.6635 60.8385 84.8563 60.8906V62.3672ZM86.6025 67.5625C86.4306 67.2656 86.2926 66.9167 86.1884 66.5156C86.0895 66.1146 86.04 65.5911 86.04 64.9453C86.04 64.2995 86.178 63.7057 86.4541 63.1641C86.7353 62.6172 87.0999 62.1693 87.5478 61.8203C88.4176 61.1484 89.4983 60.8125 90.79 60.8125C91.4619 60.8125 91.9697 60.8281 92.3134 60.8594C92.3134 60.8594 92.566 60.8854 93.0713 60.9375V69H91.665L91.6025 68.0703C91.29 68.487 90.8134 68.7969 90.1728 69C89.928 69.0781 89.6754 69.1172 89.415 69.1172C89.1598 69.1172 88.9072 69.0911 88.6572 69.0391C88.4072 68.987 88.1572 68.901 87.9072 68.7812C87.6624 68.6615 87.428 68.5026 87.2041 68.3047C86.9801 68.1016 86.7796 67.8542 86.6025 67.5625ZM91.5088 62.0859C91.1754 62.0443 90.8421 62.0234 90.5088 62.0234C90.1806 62.0234 89.8291 62.0833 89.4541 62.2031C89.0791 62.3177 88.7588 62.5 88.4931 62.75C87.941 63.2708 87.665 64.0651 87.665 65.1328C87.665 66.1432 87.902 66.8906 88.3759 67.375C88.7353 67.7344 89.1676 67.9141 89.6728 67.9141C90.3239 67.9141 90.8603 67.6771 91.2822 67.2031C91.3864 67.0833 91.4619 66.9766 91.5088 66.8828V62.0859ZM98.3097 67.7656C98.4816 67.8281 98.742 67.8594 99.0909 67.8594C99.4399 67.8594 99.7316 67.8177 99.9659 67.7344V68.9844C99.8566 69.0104 99.6977 69.026 99.4894 69.0312L98.9972 69.0469C98.8878 69.0469 98.8045 69.0469 98.7472 69.0469C97.742 69.0469 96.9998 68.7188 96.5206 68.0625C96.1352 67.5312 95.9425 66.8281 95.9425 65.9531V62.1328H94.7863V61.3984L95.9425 60.9375L96.3175 58.9375H97.505V60.9375H100.005V62.1328H97.505V65.9453C97.505 66.9661 97.7732 67.5729 98.3097 67.7656ZM105.689 69.125C102.741 69.125 101.267 67.6849 101.267 64.8047C101.267 63.5651 101.676 62.5729 102.493 61.8281C103.228 61.151 104.066 60.8125 105.009 60.8125C106.035 60.8125 106.837 61.1562 107.415 61.8438C107.952 62.4844 108.22 63.3411 108.22 64.4141V65.0234H102.892C102.892 66.4974 103.493 67.3984 104.697 67.7266C104.983 67.8047 105.423 67.8438 106.017 67.8438C106.616 67.8438 107.202 67.763 107.775 67.6016V68.9219C107.202 69.0573 106.506 69.125 105.689 69.125ZM106.658 63.875C106.658 63.375 106.519 62.9531 106.243 62.6094C105.921 62.2135 105.475 62.0156 104.908 62.0156C104.309 62.0156 103.822 62.2057 103.447 62.5859C103.103 62.9401 102.931 63.3698 102.931 63.875H106.658ZM111.755 69.125C111.104 69.125 110.445 69.0781 109.779 68.9844V67.6016C110.456 67.763 111.143 67.8438 111.841 67.8438C113.237 67.8438 113.935 67.5495 113.935 66.9609C113.935 66.737 113.88 66.5703 113.771 66.4609C113.609 66.2891 113.354 66.1172 113.005 65.9453L111.865 65.4219C111.125 65.0521 110.646 64.7552 110.427 64.5312C110.016 64.1146 109.81 63.6198 109.81 63.0469C109.81 62.401 110.109 61.875 110.708 61.4688C111.354 61.0312 112.261 60.8125 113.427 60.8125C114.016 60.8125 114.609 60.8542 115.208 60.9375V62.2734C114.552 62.1536 113.979 62.0938 113.49 62.0938C113.005 62.0938 112.628 62.125 112.357 62.1875C112.091 62.25 111.891 62.3281 111.755 62.4219C111.542 62.5677 111.435 62.7578 111.435 62.9922C111.435 63.2214 111.508 63.4089 111.654 63.5547C111.805 63.6953 112.039 63.849 112.357 64.0156L113.505 64.5703C114.255 64.9609 114.737 65.2604 114.951 65.4688C115.357 65.8646 115.56 66.362 115.56 66.9609C115.56 67.6016 115.237 68.1172 114.591 68.5078C113.914 68.9193 112.969 69.125 111.755 69.125ZM121.701 60.9375H123.365L125.435 67.3438L127.529 60.9375H129.154L131.271 67.3203L133.24 60.9375H134.787L132.076 69H130.467L128.295 62.8906L126.24 69H124.631L121.701 60.9375ZM139.736 69.125C136.788 69.125 135.314 67.6849 135.314 64.8047C135.314 63.5651 135.723 62.5729 136.541 61.8281C137.275 61.151 138.114 60.8125 139.057 60.8125C140.083 60.8125 140.885 61.1562 141.463 61.8438C141.999 62.4844 142.268 63.3411 142.268 64.4141V65.0234H136.939C136.939 66.4974 137.541 67.3984 138.744 67.7266C139.031 67.8047 139.471 67.8438 140.064 67.8438C140.663 67.8438 141.249 67.763 141.822 67.6016V68.9219C141.249 69.0573 140.554 69.125 139.736 69.125ZM140.705 63.875C140.705 63.375 140.567 62.9531 140.291 62.6094C139.968 62.2135 139.523 62.0156 138.955 62.0156C138.356 62.0156 137.869 62.2057 137.494 62.5859C137.15 62.9401 136.978 63.3698 136.978 63.875H140.705ZM144.162 57.375H145.725V65.9453C145.725 66.9766 145.959 67.5833 146.428 67.7656C146.584 67.8281 146.751 67.8594 146.928 67.8594C147.105 67.8594 147.264 67.8385 147.404 67.7969V69L147.115 69.0312C147.022 69.0417 146.93 69.0469 146.842 69.0469C145.842 69.0469 145.121 68.7188 144.678 68.0625C144.334 67.5469 144.162 66.8438 144.162 65.9531V57.375ZM149.346 57.375H150.908V65.9453C150.908 66.9766 151.143 67.5833 151.612 67.7656C151.768 67.8281 151.934 67.8594 152.112 67.8594C152.289 67.8594 152.448 67.8385 152.588 67.7969V69L152.299 69.0312C152.205 69.0417 152.114 69.0469 152.026 69.0469C151.026 69.0469 150.304 68.7188 149.862 68.0625C149.518 67.5469 149.346 66.8438 149.346 65.9531V57.375ZM158.276 60.9375H159.94L162.01 67.3438L164.104 60.9375H165.729L167.846 67.3203L169.815 60.9375H171.362L168.651 69H167.042L164.87 62.8906L162.815 69H161.206L158.276 60.9375ZM174.366 58.5938C174.366 58.8906 174.267 59.1198 174.069 59.2812C173.876 59.4375 173.634 59.5156 173.342 59.5156C173.051 59.5156 172.809 59.4375 172.616 59.2812C172.428 59.1198 172.335 58.8906 172.335 58.5938C172.335 58.2917 172.428 58.0625 172.616 57.9062C172.809 57.75 173.051 57.6719 173.342 57.6719C173.634 57.6719 173.876 57.75 174.069 57.9062C174.267 58.0625 174.366 58.2917 174.366 58.5938ZM172.538 60.9375H174.1V69H172.538V60.9375ZM179.3 67.7656C179.472 67.8281 179.732 67.8594 180.081 67.8594C180.43 67.8594 180.722 67.8177 180.956 67.7344V68.9844C180.847 69.0104 180.688 69.026 180.479 69.0312L179.987 69.0469C179.878 69.0469 179.794 69.0469 179.737 69.0469C178.732 69.0469 177.99 68.7188 177.511 68.0625C177.125 67.5312 176.932 66.8281 176.932 65.9531V62.1328H175.776V61.3984L176.932 60.9375L177.307 58.9375H178.495V60.9375H180.995V62.1328H178.495V65.9453C178.495 66.9661 178.763 67.5729 179.3 67.7656ZM186.538 62.1562C185.767 62.1562 185.08 62.4193 184.476 62.9453V69H182.913V57.375H184.476V61.8047C185.319 61.1432 186.192 60.8125 187.093 60.8125C188.056 60.8125 188.762 61.099 189.21 61.6719C189.679 62.276 189.913 63.25 189.913 64.5938V69H188.351V64.5938C188.351 63.3021 187.999 62.5312 187.296 62.2812C187.072 62.1979 186.819 62.1562 186.538 62.1562ZM199.226 69.125C198.575 69.125 197.916 69.0781 197.249 68.9844V67.6016C197.926 67.763 198.614 67.8438 199.312 67.8438C200.708 67.8438 201.406 67.5495 201.406 66.9609C201.406 66.737 201.351 66.5703 201.242 66.4609C201.08 66.2891 200.825 66.1172 200.476 65.9453L199.335 65.4219C198.596 65.0521 198.117 64.7552 197.898 64.5312C197.486 64.1146 197.281 63.6198 197.281 63.0469C197.281 62.401 197.58 61.875 198.179 61.4688C198.825 61.0312 199.731 60.8125 200.898 60.8125C201.486 60.8125 202.08 60.8542 202.679 60.9375V62.2734C202.023 62.1536 201.45 62.0938 200.96 62.0938C200.476 62.0938 200.098 62.125 199.827 62.1875C199.562 62.25 199.361 62.3281 199.226 62.4219C199.012 62.5677 198.906 62.7578 198.906 62.9922C198.906 63.2214 198.979 63.4089 199.124 63.5547C199.275 63.6953 199.51 63.849 199.827 64.0156L200.976 64.5703C201.726 64.9609 202.208 65.2604 202.421 65.4688C202.827 65.8646 203.031 66.362 203.031 66.9609C203.031 67.6016 202.708 68.1172 202.062 68.5078C201.385 68.9193 200.439 69.125 199.226 69.125ZM205.425 57.375H206.988V65.9453C206.988 66.9766 207.222 67.5833 207.691 67.7656C207.847 67.8281 208.014 67.8594 208.191 67.8594C208.368 67.8594 208.527 67.8385 208.667 67.7969V69L208.378 69.0312C208.285 69.0417 208.194 69.0469 208.105 69.0469C207.105 69.0469 206.384 68.7188 205.941 68.0625C205.597 67.5469 205.425 66.8438 205.425 65.9531V57.375ZM210.633 67.5625C210.461 67.2656 210.323 66.9167 210.218 66.5156C210.119 66.1146 210.07 65.5911 210.07 64.9453C210.07 64.2995 210.208 63.7057 210.484 63.1641C210.765 62.6172 211.13 62.1693 211.578 61.8203C212.448 61.1484 213.528 60.8125 214.82 60.8125C215.492 60.8125 216 60.8281 216.343 60.8594C216.343 60.8594 216.596 60.8854 217.101 60.9375V69H215.695L215.633 68.0703C215.32 68.487 214.843 68.7969 214.203 69C213.958 69.0781 213.705 69.1172 213.445 69.1172C213.19 69.1172 212.937 69.0911 212.687 69.0391C212.437 68.987 212.187 68.901 211.937 68.7812C211.692 68.6615 211.458 68.5026 211.234 68.3047C211.01 68.1016 210.81 67.8542 210.633 67.5625ZM215.539 62.0859C215.205 62.0443 214.872 62.0234 214.539 62.0234C214.211 62.0234 213.859 62.0833 213.484 62.2031C213.109 62.3177 212.789 62.5 212.523 62.75C211.971 63.2708 211.695 64.0651 211.695 65.1328C211.695 66.1432 211.932 66.8906 212.406 67.375C212.765 67.7344 213.198 67.9141 213.703 67.9141C214.354 67.9141 214.89 67.6771 215.312 67.2031C215.416 67.0833 215.492 66.9766 215.539 66.8828V62.0859ZM225.23 68.9766C224.918 69.0755 224.376 69.125 223.605 69.125C222.834 69.125 222.178 69.0312 221.637 68.8438C221.1 68.6562 220.642 68.3802 220.262 68.0156C219.475 67.2604 219.082 66.2135 219.082 64.875C219.082 63.5781 219.553 62.5573 220.496 61.8125C221.34 61.1458 222.376 60.8125 223.605 60.8125C224.366 60.8125 224.887 60.8385 225.168 60.8906V62.2812C224.73 62.1406 224.23 62.0703 223.668 62.0703C223.111 62.0703 222.647 62.1484 222.277 62.3047C221.907 62.4557 221.605 62.6615 221.371 62.9219C220.928 63.4167 220.707 64.0677 220.707 64.875C220.707 66.2396 221.199 67.1484 222.183 67.6016C222.532 67.763 222.874 67.8438 223.207 67.8438C223.54 67.8438 223.795 67.8359 223.973 67.8203C224.155 67.8047 224.327 67.7839 224.488 67.7578C224.832 67.7005 225.079 67.6406 225.23 67.5781V68.9766ZM227.383 57.3828H228.945V64.5469L232.211 60.9375H234.07L230.594 64.5938L234.25 69H232.344L228.945 64.8906V69H227.383V57.3828Z" fill="#47494A"/>
<path fill-rule="evenodd" clip-rule="evenodd" d="M240 3.1076H38C18.67 3.1076 3 18.7776 3 38.1076V50.1506C3 69.4806 18.67 85.1507 38 85.1507H240C243.508 85.1507 246.895 84.6347 250.09 83.6744C250.308 83.3351 250.578 83.0433 250.9 82.8171L265.179 72.7846C265.77 72.3696 266.41 72.258 267.032 72.385C272.01 66.3391 275 58.5941 275 50.1507V38.1076C275 18.7777 259.33 3.1076 240 3.1076ZM269.4 74.228C274.775 67.6731 278 59.2886 278 50.1507V38.1076C278 17.1208 260.987 0.107605 240 0.107605H38C17.0132 0.107605 0 17.1208 0 38.1076V50.1506C0 71.1375 17.0132 88.1507 38 88.1507H240C243.252 88.1507 246.409 87.7421 249.422 86.9736C249.556 88.3251 250.116 89.6832 251.091 90.6071L264.9 103.704C267.083 105.773 269.782 104.184 269.851 100.789L270.32 77.6599C270.346 76.3549 269.982 75.1562 269.4 74.228Z" fill="url(#paint0_linear_27_16)"/>
<path fill-rule="evenodd" clip-rule="evenodd" d="M240 3.1076H38C18.67 3.1076 3 18.7776 3 38.1076V50.1506C3 69.4806 18.67 85.1507 38 85.1507H240C243.508 85.1507 246.895 84.6347 250.09 83.6744C250.308 83.3351 250.578 83.0433 250.9 82.8171L265.179 72.7846C265.77 72.3696 266.41 72.258 267.032 72.385C272.01 66.3391 275 58.5941 275 50.1507V38.1076C275 18.7777 259.33 3.1076 240 3.1076ZM269.4 74.228C274.775 67.6731 278 59.2886 278 50.1507V38.1076C278 17.1208 260.987 0.107605 240 0.107605H38C17.0132 0.107605 0 17.1208 0 38.1076V50.1506C0 71.1375 17.0132 88.1507 38 88.1507H240C243.252 88.1507 246.409 87.7421 249.422 86.9736C249.556 88.3251 250.116 89.6832 251.091 90.6071L264.9 103.704C267.083 105.773 269.782 104.184 269.851 100.789L270.32 77.6599C270.346 76.3549 269.982 75.1562 269.4 74.228Z" fill="#B3B5BA"/>
<defs>
<linearGradient id="paint0_linear_27_16" x1="278" y1="52.3683" x2="0" y2="52.3683" gradientUnits="userSpaceOnUse">
<stop stop-color="#1D5DE6"/>
<stop offset="1" stop-color="#05B9FB"/>
</linearGradient>
</defs>
</svg>
